<svg xmlns="http://www.w3.org/2000/svg" viewBox="0 0 64 64" fill="none" stroke="currentColor" stroke-width="2" stroke-linecap="round" stroke-linejoin="round" role="img" aria-label="Origin artifact symbol">
  <path d="M27 31a13 13 0 1 1 8 12" opacity="0.45"/>
  <circle cx="27" cy="31" r="5"/>
  <path d="M31 35l20 20"/>
  <path d="M42 46l5-5"/>
  <path d="M47 51l5-5"/>
  <path d="M18 12l2 5 5 2-5 2-2 5-2-5-5-2 5-2 2-5z"/>
  <path d="M40 10l1.3 3.2L45 14.5l-3.7 1.3L40 19l-1.3-3.2-3.7-1.3 3.7-1.3L40 10z" opacity="0.7"/>
</svg>
